# xmcd
#
# Track frame offsets: 
#        150
#        12390
#        26365
#        39146
#        51792
#        61421
#        73936
#        89108
#        100875
#        113823
#        127231
#        141049
#        155466
#        170269
#        180351
#        195028
#        209307
#        224574
#        237533
#        250575
#
# Disc length: 3516 seconds
#
# Revision: 7
# Processed by: cddbd v1.5.2PL0 Copyright (c) Steve Scherf et al.
# Submitted via: ExactAudioCopy v0.95b3
#
DISCID=180dba14
DTITLE=Glenn Miller - In The Mood [CD4] [222917-321]
DYEAR=2005
DGENRE=Jazz
TTITLE0=When The Swallows Come Back To Capistrano
TTITLE1=A Million Dreams Ago
TTITLE2=Blueberry Hill
TTITLE3=A Cabana In Havana
TTITLE4=Be Happy
TTITLE5=Angel Child
TTITLE6=The Call Of The Canyon
TTITLE7=Our Love Affair
TTITLE8=Crosstown
TTITLE9=What's Your Story Morning Glory
TTITLE10=Fifth Avenue
TTITLE11=I Wouldn't Take A Million
TTITLE12=A Handful Of Stars
TTITLE13=Old Black Joe
TTITLE14=Yesterthoughts
TTITLE15=Falling Leaves
TTITLE16=Shadows On The Sand
TTITLE17=Goodbye, Little Darlin', Goodbye
TTITLE18=Five O'Clock Whistle
TTITLE19=Beat Me Daddy, Eight To The Bar
EXTD=Vol 4 of a 10 CD box\n\n(P) 2000 Trumpets Of Jericho Ltd.\n(C) 20
EXTD=00 TIM The International Music Company AG\n\nOder No. 204274\n YE
EXTD=AR: 2005
EXTT0=
EXTT1=
EXTT2=
EXTT3=
EXTT4=
EXTT5=
EXTT6=
EXTT7=
EXTT8=
EXTT9=
EXTT10=
EXTT11=
EXTT12=
EXTT13=
EXTT14=
EXTT15=
EXTT16=
EXTT17=
EXTT18=
EXTT19=
PLAYORDER=
